{
  "accessors": [
    {
      "bufferView": 2,
      "componentType": 5126,
      "count": 1256,
      "max": [
        1.1128098964691162,
        1.1128098964691162,
        54.32952880859375
      ],
      "min": [
        -1.1128098964691162,
        -1.1128098964691162,
        -91.93950653076172
      ],
      "type": "VEC3"
    },
    {
      "bufferView": 2,
      "byteOffset": 15072,
      "componentType": 5126,
      "count": 1256,
      "max": [
        0.9999648332595825,
        0.9999648332595825,
        1.0
      ],
      "min": [
        -0.9999648332595825,
        -0.9999648332595825,
        -1.0
      ],
      "type": "VEC3"
    },
    {
      "bufferView": 1,
      "componentType": 5126,
      "count": 1256,
      "max": [
        1.0,
        1.0
      ],
      "min": [
        0.0,
        0.0
      ],
      "type": "VEC2"
    },
    {
      "bufferView": 1,
      "byteOffset": 10048,
      "componentType": 5126,
      "count": 1256,
      "max": [
        1.0,
        1.0
      ],
      "min": [
        0.0,
        0.0
      ],
      "type": "VEC2"
    },
    {
      "bufferView": 0,
      "componentType": 5125,
      "count": 5844,
      "type": "SCALAR"
    },
    {
      "bufferView": 2,
      "byteOffset": 30144,
      "componentType": 5126,
      "count": 543,
      "max": [
        1.0702106952667236,
        1.0702097415924072,
        53.51000213623047
      ],
      "min": [
        -1.0702099800109863,
        -1.0702104568481445,
        -53.51110076904297
      ],
      "type": "VEC3"
    },
    {
      "bufferView": 2,
      "byteOffset": 36660,
      "componentType": 5126,
      "count": 543,
      "max": [
        1.0,
        1.0,
        1.0
      ],
      "min": [
        -1.0,
        -1.0,
        -1.0
      ],
      "type": "VEC3"
    },
    {
      "bufferView": 3,
      "componentType": 5126,
      "count": 543,
      "max": [
        1.0,
        1.0,
        0.012900251895189285,
        1.0
      ],
      "min": [
        -1.0,
        -1.0,
        -0.012900158762931824,
        1.0
      ],
      "type": "VEC4"
    },
    {
      "bufferView": 1,
      "byteOffset": 20096,
      "componentType": 5126,
      "count": 543,
      "max": [
        1.0000001192092896,
        1.0
      ],
      "min": [
        0.0,
        0.0
      ],
      "type": "VEC2"
    },
    {
      "bufferView": 0,
      "byteOffset": 23376,
      "componentType": 5125,
      "count": 2160,
      "type": "SCALAR"
    },
    {
      "bufferView": 2,
      "byteOffset": 43176,
      "componentType": 5126,
      "count": 8,
      "max": [
        0.5435442924499512,
        1.1157803535461426,
        0.9064410328865051
      ],
      "min": [
        -0.5435442924499512,
        -1.115779995918274,
        -1.0057637691497803
      ],
      "type": "VEC3"
    },
    {
      "bufferView": 2,
      "byteOffset": 43272,
      "componentType": 5126,
      "count": 8,
      "max": [
        0.0,
        0.9935798645019531,
        0.11313267797231674
      ],
      "min": [
        0.0,
        -0.9935799837112427,
        0.11313261091709137
      ],
      "type": "VEC3"
    },
    {
      "bufferView": 3,
      "byteOffset": 8688,
      "componentType": 5126,
      "count": 8,
      "max": [
        1.0,
        0.0,
        0.0,
        1.0
      ],
      "min": [
        1.0,
        0.0,
        0.0,
        -1.0
      ],
      "type": "VEC4"
    },
    {
      "bufferView": 1,
      "byteOffset": 24440,
      "componentType": 5126,
      "count": 8,
      "max": [
        0.9900640249252319,
        1.0048621892929077
      ],
      "min": [
        0.009935975074768066,
        -0.004862149246037006
      ],
      "type": "VEC2"
    },
    {
      "bufferView": 1,
      "byteOffset": 24504,
      "componentType": 5126,
      "count": 8,
      "max": [
        0.9900640249252319,
        1.0048621892929077
      ],
      "min": [
        0.009935975074768066,
        -0.004862149246037006
      ],
      "type": "VEC2"
    },
    {
      "bufferView": 0,
      "byteOffset": 32016,
      "componentType": 5125,
      "count": 12,
      "type": "SCALAR"
    },
    {
      "bufferView": 2,
      "byteOffset": 43368,
      "componentType": 5126,
      "count": 54642,
      "max": [
        2.947101354598999,
        1.3880175352096558,
        14.794623374938965
      ],
      "min": [
        -2.9471006393432617,
        -1.3880175352096558,
        -1.0731481313705444
      ],
      "type": "VEC3"
    },
    {
      "bufferView": 2,
      "byteOffset": 699072,
      "componentType": 5126,
      "count": 54642,
      "max": [
        1.0,
        1.0,
        0.998269259929657
      ],
      "min": [
        -1.0,
        -1.0,
        -1.0
      ],
      "type": "VEC3"
    },
    {
      "bufferView": 1,
      "byteOffset": 24568,
      "componentType": 5126,
      "count": 54642,
      "max": [
        2.4766876697540283,
        6.949953079223633
      ],
      "min": [
        -2.301720380783081,
        -10.769198417663574
      ],
      "type": "VEC2"
    },
    {
      "bufferView": 1,
      "byteOffset": 461704,
      "componentType": 5126,
      "count": 54642,
      "max": [
        2.4766876697540283,
        6.949953079223633
      ],
      "min": [
        -2.301720380783081,
        -10.769198417663574
      ],
      "type": "VEC2"
    },
    {
      "bufferView": 0,
      "byteOffset": 32064,
      "componentType": 5125,
      "count": 288624,
      "type": "SCALAR"
    },
    {
      "bufferView": 2,
      "byteOffset": 1354776,
      "componentType": 5126,
      "count": 23049,
      "max": [
        1.5943522453308105,
        0.743309736251831,
        13.717338562011719
      ],
      "min": [
        -1.5943522453308105,
        -0.743309736251831,
        3.4591712951660156
      ],
      "type": "VEC3"
    },
    {
      "bufferView": 2,
      "byteOffset": 1631364,
      "componentType": 5126,
      "count": 23049,
      "max": [
        1.0,
        1.0,
        1.0
      ],
      "min": [
        -1.0,
        -1.0,
        -1.0
      ],
      "type": "VEC3"
    },
    {
      "bufferView": 1,
      "byteOffset": 898840,
      "componentType": 5126,
      "count": 23049,
      "max": [
        4.5,
        6.354398250579834
      ],
      "min": [
        -3.5,
        -5.603147983551025
      ],
      "type": "VEC2"
    },
    {
      "bufferView": 1,
      "byteOffset": 1083232,
      "componentType": 5126,
      "count": 23049,
      "max": [
        4.5,
        6.354398250579834
      ],
      "min": [
        -3.5,
        -5.603147983551025
      ],
      "type": "VEC2"
    },
    {
      "bufferView": 0,
      "byteOffset": 1186560,
      "componentType": 5125,
      "count": 113910,
      "type": "SCALAR"
    },
    {
      "bufferView": 2,
      "byteOffset": 1907952,
      "componentType": 5126,
      "count": 12037,
      "max": [
        2.6936538219451904,
        1.2685046195983887,
        11.25220012664795
      ],
      "min": [
        -2.6936538219451904,
        -1.2685046195983887,
        10.394603729248047
      ],
      "type": "VEC3"
    },
    {
      "bufferView": 2,
      "byteOffset": 2052396,
      "componentType": 5126,
      "count": 12037,
      "max": [
        1.0,
        1.0,
        1.0
      ],
      "min": [
        -1.0,
        -1.0,
        -0.9999985694885254
      ],
      "type": "VEC3"
    },
    {
      "bufferView": 1,
      "byteOffset": 1267624,
      "componentType": 5126,
      "count": 12037,
      "max": [
        1.7769598960876465,
        8.022856712341309
      ],
      "min": [
        -2.1232988834381104,
        0.01000000536441803
      ],
      "type": "VEC2"
    },
    {
      "bufferView": 1,
      "byteOffset": 1363920,
      "componentType": 5126,
      "count": 12037,
      "max": [
        1.7769598960876465,
        8.022856712341309
      ],
      "min": [
        -2.1232988834381104,
        0.01000000536441803
      ],
      "type": "VEC2"
    },
    {
      "bufferView": 0,
      "byteOffset": 1642200,
      "componentType": 5125,
      "count": 62970,
      "type": "SCALAR"
    },
    {
      "bufferView": 2,
      "byteOffset": 2196840,
      "componentType": 5126,
      "count": 24,
      "max": [
        1.209376335144043,
        0.6431331038475037,
        13.521095275878906
      ],
      "min": [
        -1.209376335144043,
        -0.6431331038475037,
        11.723706245422363
      ],
      "type": "VEC3"
    },
    {
      "bufferView": 2,
      "byteOffset": 2197128,
      "componentType": 5126,
      "count": 24,
      "max": [
        1.0,
        0.9649755358695984,
        0.0
      ],
      "min": [
        -1.0,
        -0.9649755358695984,
        0.0
      ],
      "type": "VEC3"
    },
    {
      "bufferView": 1,
      "byteOffset": 1460216,
      "componentType": 5126,
      "count": 24,
      "max": [
        1.854408621788025,
        1.6698731184005737
      ],
      "min": [
        -0.8544086217880249,
        -0.6698731184005737
      ],
      "type": "VEC2"
    },
    {
      "bufferView": 0,
      "byteOffset": 1894080,
      "componentType": 5125,
      "count": 36,
      "type": "SCALAR"
    },
    {
      "bufferView": 2,
      "byteOffset": 2197416,
      "componentType": 5126,
      "count": 16,
      "max": [
        0.38698598742485046,
        0.6212037801742554,
        8.410225868225098
      ],
      "min": [
        -0.38698598742485046,
        -0.6212037801742554,
        4.4188008308410645
      ],
      "type": "VEC3"
    },
    {
      "bufferView": 2,
      "byteOffset": 2197608,
      "componentType": 5126,
      "count": 16,
      "max": [
        0.0,
        1.0,
        0.0
      ],
      "min": [
        0.0,
        -1.0,
        0.0
      ],
      "type": "VEC3"
    },
    {
      "bufferView": 1,
      "byteOffset": 1460408,
      "componentType": 5126,
      "count": 16,
      "max": [
        1.031898021697998,
        1.4606285095214844
      ],
      "min": [
        -0.03189796209335327,
        -0.3354337215423584
      ],
      "type": "VEC2"
    },
    {
      "bufferView": 0,
      "byteOffset": 1894224,
      "componentType": 5125,
      "count": 24,
      "type": "SCALAR"
    },
    {
      "bufferView": 4,
      "componentType": 5126,
      "count": 129,
      "max": [
        2.6666667461395264
      ],
      "min": [
        0.0
      ],
      "type": "SCALAR"
    },
    {
      "bufferView": 5,
      "componentType": 5126,
      "count": 129,
      "max": [
        0.0,
        0.0,
        1.0,
        0.7071067690849304
      ],
      "min": [
        0.0,
        0.0,
        -0.8627343773841858,
        -0.4928983151912689
      ],
      "type": "VEC4"
    }
  ],
  "animations": [
    {
      "channels": [
        {
          "sampler": 0,
          "target": {
            "node": 4,
            "path": "rotation"
          }
        }
      ],
      "name": "Lamp|LampAction",
      "samplers": [
        {
          "input": 39,
          "interpolation": "LINEAR",
          "output": 40
        }
      ]
    }
  ],
  "asset": {
    "extras": {
      "author": "dylanheyes (https://sketchfab.com/dylanheyes)",
      "license": "CC-BY-4.0 (http://creativecommons.org/licenses/by/4.0/)",
      "source": "https://sketchfab.com/3d-models/lighthouse-017e775cb72349b99e08cfe93ae7ad29",
      "title": "Lighthouse"
    },
    "generator": "Sketchfab-14.1.2",
    "version": "2.0"
  },
  "bufferViews": [
    {
      "buffer": 0,
      "byteLength": 1894320,
      "name": "floatBufferViews",
      "target": 34963
    },
    {
      "buffer": 0,
      "byteLength": 1460536,
      "byteOffset": 1894320,
      "byteStride": 8,
      "name": "floatBufferViews",
      "target": 34962
    },
    {
      "buffer": 0,
      "byteLength": 2197800,
      "byteOffset": 3354856,
      "byteStride": 12,
      "name": "floatBufferViews",
      "target": 34962
    },
    {
      "buffer": 0,
      "byteLength": 8816,
      "byteOffset": 5552656,
      "byteStride": 16,
      "name": "floatBufferViews",
      "target": 34962
    },
    {
      "buffer": 0,
      "byteLength": 516,
      "byteOffset": 5561472,
      "name": "floatBufferViews"
    },
    {
      "buffer": 0,
      "byteLength": 2064,
      "byteOffset": 5561988,
      "byteStride": 16,
      "name": "floatBufferViews"
    }
  ],
  "buffers": [
    {
      "byteLength": 5564052,
      "uri": "scene.bin"
    }
  ],
  "extensionsUsed": [
    "KHR_materials_clearcoat",
    "KHR_materials_transmission"
  ],
  "images": [
    {
      "uri": "textures/Slate_baseColor.png"
    },
    {
      "uri": "textures/LampGlass_normal.png"
    },
    {
      "uri": "textures/Door_baseColor.jpeg"
    },
    {
      "uri": "textures/Door_normal.png"
    },
    {
      "uri": "textures/material_baseColor.png"
    },
    {
      "uri": "textures/White_baseColor.jpeg"
    },
    {
      "uri": "textures/OutsideWindows_baseColor.jpeg"
    }
  ],
  "materials": [
    {
      "doubleSided": true,
      "extensions": {
        "KHR_materials_clearcoat": {
          "clearcoatFactor": 1.0,
          "clearcoatRoughnessFactor": 0.04
        }
      },
      "name": "Slate",
      "pbrMetallicRoughness": {
        "baseColorTexture": {
          "index": 0
        },
        "roughnessFactor": 0.44799999999999995
      }
    },
    {
      "doubleSided": true,
      "emissiveFactor": [
        1.0,
        1.0,
        0.8762380000000001
      ],
      "name": "LampGlass",
      "normalTexture": {
        "index": 1
      },
      "pbrMetallicRoughness": {
        "baseColorFactor": [
          0.7999999999999999,
          0.6498280000000003,
          0.09875080000000004,
          1.0
        ],
        "metallicFactor": 0.0,
        "roughnessFactor": 0.7979171353095229
      }
    },
    {
      "doubleSided": true,
      "name": "Door",
      "normalTexture": {
        "index": 3
      },
      "pbrMetallicRoughness": {
        "baseColorTexture": {
          "index": 2
        },
        "metallicFactor": 0.39528493544253296,
        "roughnessFactor": 0.8667879622165077
      }
    },
    {
      "doubleSided": true,
      "name": "material",
      "pbrMetallicRoughness": {
        "baseColorTexture": {
          "index": 4
        },
        "metallicFactor": 0.0,
        "roughnessFactor": 0.0
      }
    },
    {
      "doubleSided": true,
      "name": "White",
      "pbrMetallicRoughness": {
        "baseColorTexture": {
          "index": 5
        },
        "metallicFactor": 0.0,
        "roughnessFactor": 0.0
      }
    },
    {
      "alphaMode": "BLEND",
      "doubleSided": true,
      "extensions": {
        "KHR_materials_transmission": {
          "transmissionFactor": 0.6396359396745974
        }
      },
      "name": "Window",
      "pbrMetallicRoughness": {
        "baseColorFactor": [
          0.128235,
          0.117076,
          0.0870915,
          0.3603640603254025
        ],
        "metallicFactor": 0.0,
        "roughnessFactor": 0.9684895382429584
      }
    },
    {
      "doubleSided": true,
      "name": "OutsideWindows",
      "pbrMetallicRoughness": {
        "baseColorTexture": {
          "index": 6
        },
        "metallicFactor": 0.0,
        "roughnessFactor": 0.0
      }
    }
  ],
  "meshes": [
    {
      "name": "Lamp_Slate_0",
      "primitives": [
        {
          "attributes": {
            "NORMAL": 1,
            "POSITION": 0,
            "TEXCOORD_0": 2,
            "TEXCOORD_1": 3
          },
          "indices": 4,
          "material": 0,
          "mode": 4
        }
      ]
    },
    {
      "name": "Lamp_LampGlass_0",
      "primitives": [
        {
          "attributes": {
            "NORMAL": 6,
            "POSITION": 5,
            "TANGENT": 7,
            "TEXCOORD_0": 8
          },
          "indices": 9,
          "material": 1,
          "mode": 4
        }
      ]
    },
    {
      "name": "Lighthouse_Door_0",
      "primitives": [
        {
          "attributes": {
            "NORMAL": 11,
            "POSITION": 10,
            "TANGENT": 12,
            "TEXCOORD_0": 13,
            "TEXCOORD_1": 14
          },
          "indices": 15,
          "material": 2,
          "mode": 4
        }
      ]
    },
    {
      "name": "Lighthouse_Red_0",
      "primitives": [
        {
          "attributes": {
            "NORMAL": 17,
            "POSITION": 16,
            "TEXCOORD_0": 18,
            "TEXCOORD_1": 19
          },
          "indices": 20,
          "material": 3,
          "mode": 4
        }
      ]
    },
    {
      "name": "Lighthouse_White_0",
      "primitives": [
        {
          "attributes": {
            "NORMAL": 22,
            "POSITION": 21,
            "TEXCOORD_0": 23,
            "TEXCOORD_1": 24
          },
          "indices": 25,
          "material": 4,
          "mode": 4
        }
      ]
    },
    {
      "name": "Lighthouse_Slate_0",
      "primitives": [
        {
          "attributes": {
            "NORMAL": 27,
            "POSITION": 26,
            "TEXCOORD_0": 28,
            "TEXCOORD_1": 29
          },
          "indices": 30,
          "material": 0,
          "mode": 4
        }
      ]
    },
    {
      "name": "Lighthouse_Window_0",
      "primitives": [
        {
          "attributes": {
            "NORMAL": 32,
            "POSITION": 31,
            "TEXCOORD_0": 33
          },
          "indices": 34,
          "material": 5,
          "mode": 4
        }
      ]
    },
    {
      "name": "Lighthouse_OutsideWindows_0",
      "primitives": [
        {
          "attributes": {
            "NORMAL": 36,
            "POSITION": 35,
            "TEXCOORD_0": 37
          },
          "indices": 38,
          "material": 6,
          "mode": 4
        }
      ]
    }
  ],
  "nodes": [
    {
      "children": [
        1
      ],
      "matrix": [
        -0.9999995827674866,
        0.0009150076075457036,
        2.0317250272088386e-19,
        0.0,
        0.0,
        2.220446049250313e-16,
        -1.0,
        0.0,
        -0.0009150076075457036,
        -0.9999995827674866,
        -2.220445122808027e-16,
        0.0,
        0.0,
        0.0,
        0.0,
        1.0
      ],
      "name": "Sketchfab_model"
    },
    {
      "children": [
        2
      ],
      "matrix": [
        0.009999999776482582,
        0.0,
        0.0,
        0.0,
        0.0,
        -0.009999999776482582,
        0.0,
        0.0,
        0.0,
        0.0,
        -0.009999999776482582,
        0.0,
        0.0,
        0.0,
        0.0,
        1.0
      ],
      "name": "Ligthouse.fbx"
    },
    {
      "children": [
        3
      ],
      "name": "Object_2"
    },
    {
      "children": [
        4,
        13
      ],
      "name": "RootNode"
    },
    {
      "children": [
        5,
        6,
        7,
        10
      ],
      "name": "Lamp",
      "rotation": [
        0.0,
        0.0,
        0.7071068286895752,
        0.7071067094802856
      ],
      "scale": [
        46.252559661865234,
        46.252559661865234,
        0.925051212310791
      ],
      "translation": [
        1.6998096441511734e-07,
        4.2070282688655425e-06,
        884.5614624023438
      ]
    },
    {
      "mesh": 0,
      "name": "Lamp_Slate_0"
    },
    {
      "mesh": 1,
      "name": "Lamp_LampGlass_0"
    },
    {
      "children": [
        8
      ],
      "name": "Torch1",
      "rotation": [
        1.0,
        0.0,
        0.0,
        4.331257628109597e-07
      ],
      "scale": [
        2.1620421409606934,
        2.1620421409606934,
        108.10211944580078
      ],
      "translation": [
        -9.095772668388236e-08,
        3.675060478158798e-09,
        6.86297607421875
      ]
    },
    {
      "children": [
        9
      ],
      "matrix": [
        1.0,
        0.0,
        0.0,
        0.0,
        0.0,
        2.220446049250313e-16,
        1.0,
        0.0,
        0.0,
        -1.0,
        2.220446049250313e-16,
        0.0,
        0.0,
        0.0,
        0.0,
        1.0
      ],
      "name": "Object_8"
    },
    {
      "name": "Object_9"
    },
    {
      "children": [
        11
      ],
      "name": "Torch2",
      "rotation": [
        -7.949807354634686e-07,
        -0.0,
        0.0,
        1.0
      ],
      "scale": [
        2.1620421409606934,
        2.1620421409606934,
        108.10211944580078
      ],
      "translation": [
        -9.095772668388236e-08,
        3.675060478158798e-09,
        16.68939208984375
      ]
    },
    {
      "children": [
        12
      ],
      "matrix": [
        1.0,
        0.0,
        0.0,
        0.0,
        0.0,
        2.220446049250313e-16,
        1.0,
        0.0,
        0.0,
        -1.0,
        2.220446049250313e-16,
        0.0,
        0.0,
        0.0,
        0.0,
        1.0
      ],
      "name": "Object_11"
    },
    {
      "name": "Object_12"
    },
    {
      "children": [
        14,
        15,
        16,
        17,
        18,
        19
      ],
      "name": "Lighthouse",
      "rotation": [
        0.0,
        0.0,
        0.7071068286895752,
        0.7071067094802856
      ],
      "scale": [
        69.76997375488281,
        148.15567016601563,
        77.52218627929688
      ],
      "translation": [
        0.0,
        0.0,
        -82.8471450805664
      ]
    },
    {
      "mesh": 2,
      "name": "Lighthouse_Door_0"
    },
    {
      "mesh": 3,
      "name": "Lighthouse_Red_0"
    },
    {
      "mesh": 4,
      "name": "Lighthouse_White_0"
    },
    {
      "mesh": 5,
      "name": "Lighthouse_Slate_0"
    },
    {
      "mesh": 6,
      "name": "Lighthouse_Window_0"
    },
    {
      "mesh": 7,
      "name": "Lighthouse_OutsideWindows_0"
    }
  ],
  "samplers": [
    {
      "magFilter": 9729,
      "minFilter": 9987,
      "wrapS": 10497,
      "wrapT": 10497
    }
  ],
  "scene": 0,
  "scenes": [
    {
      "name": "Sketchfab_Scene",
      "nodes": [
        0
      ]
    }
  ],
  "textures": [
    {
      "sampler": 0,
      "source": 0
    },
    {
      "sampler": 0,
      "source": 1
    },
    {
      "sampler": 0,
      "source": 2
    },
    {
      "sampler": 0,
      "source": 3
    },
    {
      "sampler": 0,
      "source": 4
    },
    {
      "sampler": 0,
      "source": 5
    },
    {
      "sampler": 0,
      "source": 6
    }
  ]
}
